<?xml version="1.0" encoding="utf-8"?>
<svg xmlns="http://www.w3.org/2000/svg" width="228.048" height="46" viewBox="0 0 228.048 46"><g transform="translate(-50 -31)"><path d="M.432,8.339h4.62L6.935,3.72h8.709l1.883,4.62h4.737L13.437-12.4H9.259ZM8.553-.282l2.736-6.679L14.026-.282ZM27.708,8.457h4.06L37.977-7.432H33.328L29.767,3.131,26.236-7.432H21.5Zm19.449.235A7.888,7.888,0,0,0,53.6,5.75l-2.56-2.266A5.168,5.168,0,0,1,47.216,5.1a3.658,3.658,0,0,1-3.854-3.089H54.336c.029-.412.059-.824.059-1.177,0-4.472-2.413-8.562-7.68-8.562-4.59,0-7.8,3.707-7.8,8.209A7.9,7.9,0,0,0,47.157,8.692ZM43.3-.782c.353-2.03,1.559-3.354,3.413-3.354,1.883,0,3.06,1.353,3.325,3.354ZM67.841,8.692a10.421,10.421,0,0,0,8.445-3.5L73.4,2.1a7.434,7.434,0,0,1-5.414,2.413c-3.531,0-5.973-2.942-5.973-6.473,0-3.59,2.5-6.473,5.973-6.473a7.129,7.129,0,0,1,5.3,2.3l2.707-3.119a10.365,10.365,0,0,0-7.974-3.354A10.468,10.468,0,0,0,57.278-1.959,10.41,10.41,0,0,0,67.841,8.692Zm11.593-.353h4.472v-8.8c0-2.119,1.089-3.207,2.8-3.207s2.707,1.089,2.707,3.207v8.8h4.472V-1.871c0-3.619-1.971-5.855-5.355-5.855A5.58,5.58,0,0,0,83.907-5.2V-13.14H79.434Zm22.8.294a6.064,6.064,0,0,0,4.767-2V8.339h4.325V-.812a6.874,6.874,0,0,0-1.707-5.031A7.281,7.281,0,0,0,104.3-7.608a13.915,13.915,0,0,0-6.12,1.265L99.3-2.93a11.6,11.6,0,0,1,4.355-.853c2.236,0,3.384,1.03,3.384,2.884v.265a11.207,11.207,0,0,0-3.854-.647c-3.737,0-6.355,1.589-6.355,5.031C96.824,6.927,99.266,8.633,102.238,8.633Zm1.353-3.089c-1.442,0-2.442-.706-2.442-1.913,0-1.471,1.177-2.236,3.089-2.236a6.935,6.935,0,0,1,2.854.588v.794C107.093,4.4,105.68,5.544,103.591,5.544Zm11.593,2.8h4.472V2.513c0-3.766,1.824-5.561,4.8-5.561h.235V-7.726c-2.648-.118-4.119,1.295-5.031,3.472V-7.432h-4.472ZM127.571-9.168h4.708V-13.14h-4.708Zm.118,17.507h4.472V-7.432h-4.472Zm14.006.265a6.593,6.593,0,0,0,3.531-.912V4.1a4.549,4.549,0,0,1-2.207.559c-1,0-1.442-.5-1.442-1.53V-3.607h3.707V-7.432h-3.707v-4.031H137.1v4.031h-1.883v3.825H137.1V3.867C137.1,7.515,138.958,8.6,141.695,8.6Zm10.651,4.531c2.678,0,3.972-1.206,5.179-4.414l6.061-16.154h-4.649l-3.443,10.74L151.9-7.432h-4.737L153.346,8.4a1.494,1.494,0,0,1-1.559,1.03,4.064,4.064,0,0,1-1.913-.618l-1.5,3.237A7.4,7.4,0,0,0,152.346,13.135Z" transform="translate(114.462 55.995)" fill="#ffeed3"/><g transform="translate(50 31)"><path d="M118.427,419.737a50.426,50.426,0,0,1-12.2,1.193c1.264,11.717,10.213,21.071,23.528,22.821C125.1,440.768,117.443,433.687,118.427,419.737Z" transform="translate(-106.207 -397.752)" fill="#fdac2b"/><path d="M143.958,382.056a19.9,19.9,0,0,0-14.044-9.5c-14.437-2.263-22.651,6.929-23.731,17.681C112.472,390.946,128.6,391.544,143.958,382.056ZM126.835,379.7a3.859,3.859,0,1,1-3.859,3.859A3.859,3.859,0,0,1,126.835,379.7Z" transform="translate(-106.182 -372.211)" fill="#fdac2b"/><path d="M153.156,430.957a4.192,4.192,0,0,1,3.017-3.407,19.956,19.956,0,0,0,13.584-25.419C147.679,409.134,149.217,423.223,153.156,430.957Z" transform="translate(-130.162 -388.29)" fill="#fdac2b"/></g></g></svg>