<svg id="logo" xmlns="http://www.w3.org/2000/svg" width="92.719" height="46.219" viewBox="0 0 92.719 46.219">
  <metadata><?xpacket begin="﻿" id="W5M0MpCehiHzreSzNTczkc9d"?>
<x:xmpmeta xmlns:x="adobe:ns:meta/" x:xmptk="Adobe XMP Core 5.6-c140 79.160451, 2017/05/06-01:08:21        ">
   <rdf:RDF xmlns:rdf="http://www.w3.org/1999/02/22-rdf-syntax-ns#">
      <rdf:Description rdf:about=""/>
   </rdf:RDF>
</x:xmpmeta>
                                                                                                    
                                                                                                    
                                                                                                    
                                                                                                    
                                                                                                    
                                                                                                    
                                                                                                    
                                                                                                    
                                                                                                    
                                                                                                    
                                                                                                    
                                                                                                    
                                                                                                    
                                                                                                    
                                                                                                    
                                                                                                    
                                                                                                    
                                                                                                    
                                                                                                    
                                                                                                    
                           
<?xpacket end="w"?></metadata>
<defs>
    <style>
      .cls-1 {
        fill: #fff;
        fill-rule: evenodd;
      }

      .cls-2 {
        fill: #ffc80b;
      }
    </style>
  </defs>
  <path id="Construction" class="cls-1" d="M55.512,63.633a2.161,2.161,0,0,1-.61,1.356,1.985,1.985,0,0,1-1.319.389,1.718,1.718,0,0,1-1.488-.753,3.449,3.449,0,0,1-.532-2.027V61.842a3.356,3.356,0,0,1,.561-2.08,1.845,1.845,0,0,1,1.55-.731,1.763,1.763,0,0,1,1.254.42,2.247,2.247,0,0,1,.583,1.358h1.037a2.913,2.913,0,0,0-.875-1.926,2.827,2.827,0,0,0-2-.7,3.073,3.073,0,0,0-1.654.443,2.909,2.909,0,0,0-1.1,1.27,4.456,4.456,0,0,0-.389,1.917V62.57a4,4,0,0,0,.835,2.659,2.756,2.756,0,0,0,2.221.994,3,3,0,0,0,2.049-.674,2.878,2.878,0,0,0,.916-1.915H55.512Zm9.56-1.67a4.861,4.861,0,0,0-.387-2.006,2.925,2.925,0,0,0-1.1-1.316,3.032,3.032,0,0,0-1.657-.454,2.9,2.9,0,0,0-2.75,1.783,4.78,4.78,0,0,0-.392,1.993v0.564a4.642,4.642,0,0,0,.406,1.947,3.1,3.1,0,0,0,4.4,1.3,2.929,2.929,0,0,0,1.1-1.308,4.838,4.838,0,0,0,.387-2.006V61.963Zm-1.026.569a3.492,3.492,0,0,1-.564,2.087,1.986,1.986,0,0,1-3.107-.043,3.511,3.511,0,0,1-.567-2.119V61.882a3.435,3.435,0,0,1,.577-2.065,1.823,1.823,0,0,1,1.539-.744,1.843,1.843,0,0,1,1.563.744,3.507,3.507,0,0,1,.559,2.135v0.58Zm9.683-4.238H72.7v6.053l-3.948-6.053H67.719v7.82h1.037V60.088l3.937,6.026h1.037v-7.82Zm6.7,4.955a1.062,1.062,0,0,1,.4.889,1.082,1.082,0,0,1-.435.908,2.027,2.027,0,0,1-1.251.333,2.205,2.205,0,0,1-1.4-.411,1.347,1.347,0,0,1-.524-1.12H76.182a2.065,2.065,0,0,0,.379,1.219,2.53,2.53,0,0,0,1.077.846,3.675,3.675,0,0,0,1.5.309,3.16,3.16,0,0,0,1.982-.572,1.827,1.827,0,0,0,.741-1.523,1.968,1.968,0,0,0-.266-1.037,2.316,2.316,0,0,0-.816-0.771,6.4,6.4,0,0,0-1.525-.6,3.978,3.978,0,0,1-1.38-.605,1.009,1.009,0,0,1-.406-0.81,1.122,1.122,0,0,1,.427-0.934,1.878,1.878,0,0,1,1.19-.336,1.835,1.835,0,0,1,1.273.407,1.43,1.43,0,0,1,.451,1.118h1.037a2.2,2.2,0,0,0-.346-1.2,2.363,2.363,0,0,0-.978-0.859,3.205,3.205,0,0,0-1.437-.312,2.935,2.935,0,0,0-1.92.6,1.892,1.892,0,0,0-.739,1.528,1.79,1.79,0,0,0,.6,1.372,4.848,4.848,0,0,0,1.931.937A4.647,4.647,0,0,1,80.425,63.249Zm9.264-4.955H83.642v0.843H86.15v6.977h1.026V59.138H89.69V58.294Zm6.826,7.82h1.106V66.05l-1.837-3.319a2.356,2.356,0,0,0,1.1-.811,2.1,2.1,0,0,0,.395-1.273,2.164,2.164,0,0,0-.712-1.751,3.065,3.065,0,0,0-2.033-.6H91.944v7.82h1.037V62.951h1.837Zm-3.534-6.977H94.56a1.831,1.831,0,0,1,1.249.393,1.418,1.418,0,0,1,.432,1.114,1.347,1.347,0,0,1-.454,1.066,1.788,1.788,0,0,1-1.222.4H92.981v-2.97Zm11.31-.843v5.3a1.788,1.788,0,0,1-.464,1.316,2.139,2.139,0,0,1-2.672,0,1.787,1.787,0,0,1-.468-1.319v-5.3h-1.02v5.328a2.479,2.479,0,0,0,.773,1.907,2.929,2.929,0,0,0,2.047.693l0.274-.011a2.8,2.8,0,0,0,1.871-.79,2.5,2.5,0,0,0,.7-1.81V58.294h-1.037Zm8.48,5.339a2.16,2.16,0,0,1-.609,1.356,1.987,1.987,0,0,1-1.319.389,1.72,1.72,0,0,1-1.488-.753,3.453,3.453,0,0,1-.532-2.027V61.842a3.357,3.357,0,0,1,.562-2.08,1.844,1.844,0,0,1,1.549-.731,1.763,1.763,0,0,1,1.254.42,2.244,2.244,0,0,1,.583,1.358h1.037a2.912,2.912,0,0,0-.876-1.926,2.825,2.825,0,0,0-2-.7,3.073,3.073,0,0,0-1.654.443,2.913,2.913,0,0,0-1.1,1.27,4.464,4.464,0,0,0-.389,1.917V62.57a4,4,0,0,0,.835,2.659,2.756,2.756,0,0,0,2.221.994,3,3,0,0,0,2.049-.674,2.878,2.878,0,0,0,.916-1.915h-1.037Zm8.792-5.339h-6.048v0.843h2.508v6.977h1.026V59.138h2.514V58.294Zm3.366,0H123.9v7.82h1.031v-7.82Zm9,3.669a4.858,4.858,0,0,0-.387-2.006,2.918,2.918,0,0,0-1.1-1.316,3.034,3.034,0,0,0-1.657-.454,2.9,2.9,0,0,0-2.75,1.783,4.771,4.771,0,0,0-.392,1.993v0.564a4.642,4.642,0,0,0,.4,1.947,3.1,3.1,0,0,0,4.4,1.3,2.927,2.927,0,0,0,1.095-1.308,4.834,4.834,0,0,0,.387-2.006V61.963Zm-1.026.569a3.5,3.5,0,0,1-.564,2.087,1.986,1.986,0,0,1-3.107-.043,3.51,3.51,0,0,1-.567-2.119V61.882a3.438,3.438,0,0,1,.578-2.065,1.822,1.822,0,0,1,1.539-.744,1.844,1.844,0,0,1,1.563.744,3.509,3.509,0,0,1,.558,2.135v0.58Zm9.683-4.238h-1.026v6.053l-3.947-6.053h-1.037v7.82h1.037V60.088l3.937,6.026h1.036v-7.82Z" transform="translate(-49.875 -20)"/>
  <path id="Ave" class="cls-1" d="M71,47.544l-7.872-22.4H57.784l-7.9,22.4h4.768l1.44-4.192h8.7l1.44,4.192H71ZM60.44,30.584l3.2,9.312H57.272Zm17.408,16.96h5.664l6.528-17.728h-4.8L80.7,43.672,76.119,29.816h-4.8ZM104.855,46.2a7.781,7.781,0,0,0,2.976-4.128h-4.864a3.728,3.728,0,0,1-3.456,1.92,3.985,3.985,0,0,1-2.848-1.056,4.209,4.209,0,0,1-1.28-2.784h12.928a10.987,10.987,0,0,0,.128-1.728,8.561,8.561,0,0,0-2.5-6.448,8.8,8.8,0,0,0-6.384-2.416,8.515,8.515,0,0,0-6.336,2.48,9,9,0,0,0-2.448,6.608,9.14,9.14,0,0,0,2.432,6.64,8.382,8.382,0,0,0,6.3,2.512A8.858,8.858,0,0,0,104.855,46.2Zm-1.088-8.96H95.383a4.471,4.471,0,0,1,1.36-2.816,4,4,0,0,1,2.832-1.056,4.232,4.232,0,0,1,2.9,1.056,3.864,3.864,0,0,1,1.3,2.816h0Z" transform="translate(-49.875 -20)"/>
  <circle id="Elips_1" data-name="Elips 1" class="cls-2" cx="45.125" cy="3" r="3"/>
  <circle id="Elips_1_kopya" data-name="Elips 1 kopya" class="cls-2" cx="54.125" cy="3" r="3"/>
</svg>
