<?xml version="1.0" encoding="UTF-8"?> <svg xmlns="http://www.w3.org/2000/svg" width="144.236" height="35.289" viewBox="0 0 144.236 35.289"><g transform="translate(-47 -28.001)"><path d="M.432,0H3.258L4.41-2.826H9.738L10.89,0h2.9l-5.4-12.69H5.832ZM5.4-5.274,7.074-9.36,8.748-5.274ZM17.118.072H19.6l3.8-9.72H20.556L18.378-3.186l-2.16-6.462h-2.9Zm11.9.144a4.825,4.825,0,0,0,3.942-1.8L31.392-2.97a3.162,3.162,0,0,1-2.34.99,2.238,2.238,0,0,1-2.358-1.89h6.714c.018-.252.036-.5.036-.72,0-2.736-1.476-5.238-4.7-5.238a4.8,4.8,0,0,0-4.77,5.022A4.834,4.834,0,0,0,29.016.216Zm-2.358-5.8a2.151,2.151,0,0,1,2.088-2.052A2.069,2.069,0,0,1,30.78-5.58ZM40.032.216a4.858,4.858,0,0,0,3.942-1.764l-1.6-1.62a3.056,3.056,0,0,1-2.214,1.026A2.472,2.472,0,0,1,37.71-4.806,2.477,2.477,0,0,1,40.05-7.47a2.949,2.949,0,0,1,2.25.954l1.6-1.62a4.746,4.746,0,0,0-3.834-1.692A4.953,4.953,0,0,0,35.01-4.806,4.934,4.934,0,0,0,40.032.216ZM45.756,0h2.736V-5.382c0-1.3.666-1.962,1.71-1.962s1.656.666,1.656,1.962V0h2.736V-6.246c0-2.214-1.206-3.582-3.276-3.582A3.413,3.413,0,0,0,48.492-8.28v-4.86H45.756Zm13.95.18a3.71,3.71,0,0,0,2.916-1.224V0h2.646V-5.6a4.2,4.2,0,0,0-1.044-3.078,4.454,4.454,0,0,0-3.258-1.08,8.512,8.512,0,0,0-3.744.774l.684,2.088a7.1,7.1,0,0,1,2.664-.522c1.368,0,2.07.63,2.07,1.764v.162a6.856,6.856,0,0,0-2.358-.4c-2.286,0-3.888.972-3.888,3.078C56.394-.864,57.888.18,59.706.18Zm.828-1.89c-.882,0-1.494-.432-1.494-1.17,0-.9.72-1.368,1.89-1.368a4.242,4.242,0,0,1,1.746.36V-3.4C62.676-2.412,61.812-1.71,60.534-1.71ZM67.626,0h2.736V-3.564c0-2.3,1.116-3.4,2.934-3.4h.144V-9.828A2.98,2.98,0,0,0,70.362-7.7V-9.648H67.626ZM75.2-10.71h2.88v-2.43H75.2ZM75.276,0h2.736V-9.648H75.276Zm8.568.162A4.034,4.034,0,0,0,86-.4v-2.2a2.783,2.783,0,0,1-1.35.342c-.612,0-.882-.306-.882-.936V-7.308H86.04v-2.34H83.772v-2.466H81.036v2.466H79.884v2.34h1.152v4.572C81.036-.5,82.17.162,83.844.162ZM90.36,2.934c1.638,0,2.43-.738,3.168-2.7l3.708-9.882H94.392l-2.106,6.57-2.2-6.57h-2.9L90.972.036a.914.914,0,0,1-.954.63,2.486,2.486,0,0,1-1.17-.378l-.918,1.98A4.53,4.53,0,0,0,90.36,2.934Z" transform="translate(94 52)" fill="#fff"></path><g transform="translate(-59.182 -344.21)"><path d="M115.587,419.737a38.686,38.686,0,0,1-9.358.916c.97,8.989,7.835,16.165,18.049,17.508C120.706,435.871,114.832,430.439,115.587,419.737Z" transform="translate(-0.03 -30.66)" fill="#fff"></path><path d="M135.162,379.764a15.266,15.266,0,0,0-10.774-7.288c-11.076-1.736-17.377,5.315-18.206,13.564C111.007,386.584,123.384,387.042,135.162,379.764Zm-13.136-1.808a2.961,2.961,0,1,1-2.961,2.96A2.961,2.961,0,0,1,122.026,377.956Z" fill="#fff"></path><path d="M152.608,424.245a3.216,3.216,0,0,1,2.315-2.614,15.309,15.309,0,0,0,10.421-19.5C148.406,407.5,149.586,418.312,152.608,424.245Z" transform="translate(-28.786 -19.302)" fill="#fff"></path></g></g></svg> 