<?xml version="1.0" standalone="no"?>
<!DOCTYPE svg PUBLIC "-//W3C//DTD SVG 20010904//EN"
 "http://www.w3.org/TR/2001/REC-SVG-20010904/DTD/svg10.dtd">
<svg version="1.0" xmlns="http://www.w3.org/2000/svg"
 width="50.000000pt" height="50.000000pt" viewBox="0 0 50.000000 50.000000"
 preserveAspectRatio="xMidYMid meet">

<g transform="translate(0.000000,50.000000) scale(0.100000,-0.100000)"
fill="#000000" stroke="none">
<path d="M26 465 c-9 -24 4 -45 28 -44 16 1 17 2 4 6 -10 2 -18 13 -18 23 0
10 8 21 18 23 13 4 12 5 -4 6 -12 0 -24 -6 -28 -14z"/>
<path d="M150 450 c0 -16 5 -30 11 -30 5 0 7 5 4 10 -3 6 0 10 9 10 8 0 16 -6
19 -12 2 -7 6 2 9 20 2 17 1 32 -4 32 -4 0 -8 -4 -8 -10 0 -5 -7 -10 -16 -10
-8 0 -12 5 -9 10 3 6 1 10 -4 10 -6 0 -11 -13 -11 -30z"/>
</g>
</svg>
