<svg xmlns="http://www.w3.org/2000/svg" width="62" height="28" viewBox="0 0 62 28">
  <g fill="none" fill-rule="evenodd">
    <path fill="#000" fill-rule="nonzero" d="M19.722,27 L17.9276,21.9072 L7.5536,21.9072 L5.7592,27 L0.5126,27 L9.6044,2.305 L15.8764,2.305 L24.9682,27 L19.7216,27 L19.722,27 Z M9.058,17.6177 L16.4237,17.6177 L12.7494,7.1417 L9.058,17.6177 Z M38.158,9.4317 L43.3704,9.4317 L35.885,26.9997 L31.6125,26.9997 L24.2126,9.4317 L29.3908,9.4317 L33.7658,21.4457 L38.1579,9.4317 L38.158,9.4317 Z M61.977,17.9595 L61.92573,19.1387 L48.90373,19.1387 C49.00627,20.5401 49.47339,21.611 50.30513,22.3516 C51.13687,23.0922 52.16793,23.4624 53.39843,23.4624 C54.28711,23.4624 55.05903,23.26017 55.71413,22.85571 C56.36924,22.45125 56.86203,21.86165 57.19243,21.08691 L61.70413,21.75341 C61.12307,23.51941 60.09773,24.89221 58.62793,25.87211 C57.15823,26.85193 55.42643,27.34181 53.43263,27.34181 C50.56153,27.34181 48.28003,26.53575 46.58813,24.92361 C44.89623,23.31147 44.05033,21.07561 44.05033,18.21581 C44.05033,15.37891 44.89912,13.14301 46.59673,11.50801 C48.29433,9.87311 50.52173,9.05561 53.27883,9.05561 C55.89933,9.05561 58.00133,9.80186 59.58503,11.29441 C61.16873,12.78696 61.96623,15.00861 61.97763,17.95941 L61.977,17.9595 Z M53.3124,12.542 C50.9198,12.542 49.4957,13.6699 49.0399,15.9258 L57.1063,15.9258 C56.98097,14.832 56.57652,13.9947 55.8929,13.4136 C55.2093,12.83254 54.3491,12.54202 53.3123,12.54202 L53.3124,12.542 Z"/>
    <circle cx="49.5" cy="2.5" r="2.5" fill="#FFAC9A"/>
    <circle cx="56.5" cy="2.5" r="2.5" fill="#FFAC9A"/>
  </g>
</svg>
