<svg xmlns="http://www.w3.org/2000/svg" width="102" height="30" viewBox="0 0 102 30">
  <g fill="none" fill-rule="evenodd">
    <path fill="#27AE60" d="M4.7363633,18.5880962 C4.7363633,11.6059118 10.3544697,5.94541082 17.2843607,5.94492986 C24.0112544,5.94541082 29.5010107,11.2791583 29.8154714,17.9776954 C29.9870226,17.0632665 30.0805851,16.1208818 30.0805851,15.1548096 C30.0810028,6.78553106 23.3466503,0.000781563126 15.0409489,0.000300601202 C6.73393479,0.000300601202 0,6.78553106 0,15.1557114 C0,22.3931663 5.03811432,28.4424649 11.7724668,29.946493 C7.60672739,27.8893587 4.73588594,23.5771142 4.7363633,18.5880962 Z"/>
    <path fill="#D0D0D0" d="M25.3031291,19.3848297 C25.3036064,16.7504208 23.9113868,14.4493788 21.8320674,13.1697796 C22.5009081,14.2746092 22.8938348,15.5679158 22.8938348,16.9568737 C22.8938348,20.9793387 19.6568584,24.2407415 15.6640426,24.2407415 C14.28501,24.2407415 13.0028217,23.8443687 11.9057894,23.170481 C13.1762227,25.2655511 15.460031,26.6682164 18.0738142,26.6686974 C22.0661527,26.6686974 25.3031291,23.4072946 25.3031291,19.3848297 Z"/>
    <path fill="#2C2C2C" d="M52.215,7.608 C56.152,7.608 59.19,10.46 59.19,14.49 C59.19,18.489 56.152,21.403 52.215,21.403 C48.278,21.403 45.24,18.489 45.24,14.49 C45.24,10.46 48.278,7.608 52.215,7.608 Z M52.215,18.675 C54.602,18.675 56.09,17.032 56.09,14.521 C56.09,11.545 54.137,10.336 52.215,10.336 C50.293,10.336 48.34,11.545 48.34,14.521 C48.34,17.032 49.828,18.675 52.215,18.675 Z M65.2960605,19.481 L65.2960605,28.099 L62.2580605,28.099 L62.2580605,7.949 L65.2960605,7.949 L65.2960605,9.375 C66.4120605,8.042 67.8690605,7.608 69.1710605,7.608 C72.6120605,7.608 75.5260605,10.243 75.5260605,14.397 C75.5260605,18.799 72.3020605,21.403 69.2020605,21.403 C68.4890605,21.403 66.6600605,21.155 65.2960605,19.481 Z M68.7990605,10.336 C66.8770605,10.336 65.1100605,11.7 65.1100605,14.552 C65.1100605,17.28 66.8770605,18.675 68.7990605,18.675 C71.0000605,18.675 72.4260605,16.784 72.4260605,14.521 C72.4260605,12.196 71.0000605,10.336 68.7990605,10.336 Z M78.5941211,7.949 L81.6321211,7.949 L81.6321211,15.42 C81.6321211,16.195 81.6631211,17.094 82.1901211,17.776 C82.5931211,18.303 83.3061211,18.675 84.1741211,18.675 C85.0421211,18.675 85.7551211,18.303 86.1581211,17.776 C86.6851211,17.094 86.7161211,16.195 86.7161211,15.42 L86.7161211,7.949 L89.7541211,7.949 L89.7541211,15.513 C89.7541211,17.187 89.5681211,18.582 88.3591211,19.791 C87.1811211,20.969 85.5691211,21.403 84.1121211,21.403 C82.7791211,21.403 81.1671211,21 79.9891211,19.791 C78.7801211,18.582 78.5941211,17.187 78.5941211,15.513 L78.5941211,7.949 Z M101.471182,9.902 L99.2081816,11.39 C98.8981816,10.894 98.3091816,10.274 97.3481816,10.274 C96.9141816,10.274 96.6041816,10.429 96.4181816,10.615 C96.2631816,10.77 96.1391816,11.018 96.1391816,11.297 C96.1391816,11.638 96.2941816,11.855 96.5731816,12.041 C96.7591816,12.165 96.9451816,12.227 97.5961816,12.568 L99.1461816,13.343 C99.8281816,13.684 100.479182,14.025 100.975182,14.552 C101.688182,15.265 101.936182,16.071 101.936182,16.97 C101.936182,18.148 101.502182,19.171 100.789182,19.946 C99.7661816,21.062 98.4951816,21.403 97.1311816,21.403 C96.2941816,21.403 95.2401816,21.279 94.3101816,20.566 C93.5661816,20.008 92.9461816,19.109 92.6361816,18.179 L95.1161816,17.001 C95.2711816,17.435 95.5501816,17.993 95.8291816,18.241 C96.0151816,18.427 96.4491816,18.737 97.1621816,18.737 C97.6271816,18.737 98.1231816,18.582 98.4021816,18.303 C98.6501816,18.055 98.8361816,17.652 98.8361816,17.28 C98.8361816,16.908 98.7121816,16.598 98.4331816,16.288 C98.0611816,15.916 97.6271816,15.699 97.1311816,15.482 L96.0151816,14.955 C95.4261816,14.676 94.7131816,14.335 94.2171816,13.839 C93.5351816,13.188 93.2871816,12.475 93.2871816,11.638 C93.2871816,10.584 93.6901816,9.561 94.3721816,8.848 C94.9611816,8.228 95.9531816,7.608 97.5651816,7.608 C98.4951816,7.608 99.2391816,7.794 99.9831816,8.29 C100.417182,8.569 101.006182,9.065 101.471182,9.902 Z"/>
  </g>
</svg>
