<svg xmlns="http://www.w3.org/2000/svg" width="94" height="44" viewBox="0 0 94 44">
  <g fill="none" fill-rule="evenodd" transform="translate(.467)">
    <path fill="#020202" d="M8.08888889,19.448 C12.6546173,19.448 16.1777778,22.76 16.1777778,27.44 C16.1777778,32.084 12.6546173,35.468 8.08888889,35.468 C3.52316049,35.468 -2.06057393e-13,32.084 -2.06057393e-13,27.44 C-2.06057393e-13,22.76 3.52316049,19.448 8.08888889,19.448 Z M8.08888889,32.3 C10.8570864,32.3 12.582716,30.392 12.582716,27.476 C12.582716,24.02 10.3178272,22.616 8.08888889,22.616 C5.85995062,22.616 3.59506173,24.02 3.59506173,27.476 C3.59506173,30.392 5.32069136,32.3 8.08888889,32.3 Z M23.5925926,33.236 L23.5925926,43.244 L20.0694321,43.244 L20.0694321,19.844 L23.5925926,19.844 L23.5925926,21.5 C24.8868148,19.952 26.5764938,19.448 28.0864198,19.448 C32.0769383,19.448 35.4562963,22.508 35.4562963,27.332 C35.4562963,32.444 31.7174321,35.468 28.1223704,35.468 C27.2955062,35.468 25.1744198,35.18 23.5925926,33.236 Z M27.6550123,22.616 C25.4260741,22.616 23.3768889,24.2 23.3768889,27.512 C23.3768889,30.68 25.4260741,32.3 27.6550123,32.3 C30.2075062,32.3 31.8612346,30.104 31.8612346,27.476 C31.8612346,24.776 30.2075062,22.616 27.6550123,22.616 Z M39.3479506,19.844 L42.8711111,19.844 L42.8711111,28.52 C42.8711111,29.42 42.9070617,30.464 43.5182222,31.256 C43.9855802,31.868 44.8124444,32.3 45.8190617,32.3 C46.825679,32.3 47.6525432,31.868 48.1199012,31.256 C48.7310617,30.464 48.7670123,29.42 48.7670123,28.52 L48.7670123,19.844 L52.2901728,19.844 L52.2901728,28.628 C52.2901728,30.572 52.0744691,32.192 50.6723951,33.596 C49.3062716,34.964 47.4368395,35.468 45.7471605,35.468 C44.201284,35.468 42.3318519,35 40.9657284,33.596 C39.5636543,32.192 39.3479506,30.572 39.3479506,28.628 L39.3479506,19.844 Z M66.2120494,22.112 L63.5876543,23.84 C63.2281481,23.264 62.5450864,22.544 61.4306173,22.544 C60.9273086,22.544 60.5678025,22.724 60.3520988,22.94 C60.1723457,23.12 60.0285432,23.408 60.0285432,23.732 C60.0285432,24.128 60.2082963,24.38 60.5318519,24.596 C60.7475556,24.74 60.9632593,24.812 61.7182222,25.208 L63.5157531,26.108 C64.3066667,26.504 65.0616296,26.9 65.6368395,27.512 C66.4637037,28.34 66.7513086,29.276 66.7513086,30.32 C66.7513086,31.688 66.248,32.876 65.4211358,33.776 C64.2347654,35.072 62.7607901,35.468 61.178963,35.468 C60.2082963,35.468 58.9859753,35.324 57.9074568,34.496 C57.044642,33.848 56.3256296,32.804 55.9661235,31.724 L58.8421728,30.356 C59.0219259,30.86 59.3454815,31.508 59.669037,31.796 C59.8847407,32.012 60.3880494,32.372 61.2149136,32.372 C61.7541728,32.372 62.3293827,32.192 62.6529383,31.868 C62.9405432,31.58 63.1562469,31.112 63.1562469,30.68 C63.1562469,30.248 63.0124444,29.888 62.6888889,29.528 C62.2574815,29.096 61.7541728,28.844 61.178963,28.592 L59.8847407,27.98 C59.201679,27.656 58.3748148,27.26 57.7996049,26.684 C57.0086914,25.928 56.7210864,25.1 56.7210864,24.128 C56.7210864,22.904 57.1884444,21.716 57.979358,20.888 C58.6624198,20.168 59.8128395,19.448 61.6822716,19.448 C62.7607901,19.448 63.6236049,19.664 64.4864198,20.24 C64.9897284,20.564 65.6727901,21.14 66.2120494,22.112 Z"/>
    <g fill="#DF6FA0" transform="translate(73.31)">
      <path d="M19.4605265,7.92418888 C19.4611299,4.56531764 17.7015189,1.63148898 15.0734903,0 C15.9188306,1.40865782 16.4154463,3.05762375 16.4154463,4.82854509 C16.4154463,9.95718788 12.3242678,14.1154765 7.27779224,14.1154765 C5.53484825,14.1154765 3.91430477,13.6101012 2.52777778,12.7508943 C4.13346427,15.4221087 7.01994422,17.210507 10.3234758,17.2111202 C15.3693481,17.2111202 19.4605265,13.0528317 19.4605265,7.92418888 Z" transform="matrix(1 0 0 -1 0 17.211)"/>
      <path d="M9.59372961,13.8948676 C9.59407091,12.0286784 8.5986495,10.3986429 7.11195954,9.4921875 C7.5901731,10.2748379 7.87111129,11.1910035 7.87111129,12.1749276 C7.87111129,15.024402 5.55670957,17.3347475 2.70189112,17.3347475 C1.71589831,17.3347475 0.799148121,17.053961 0.0147823262,16.5765855 C0.923127833,18.0607125 2.55602511,19.0543468 4.42485074,19.0546875 C7.27932789,19.0546875 9.59372961,16.744342 9.59372961,13.8948676 Z" opacity=".7" transform="matrix(1 0 0 -1 0 28.547)"/>
    </g>
  </g>
</svg>
