<svg xmlns="http://www.w3.org/2000/svg" width="81" height="40" viewBox="0 0 81 40">
  <g fill="none" fill-rule="evenodd">
    <path fill="#3F3F3F" d="M7.616,18.176 C11.68,18.176 14.816,21.12 14.816,25.28 C14.816,29.408 11.68,32.416 7.616,32.416 C3.552,32.416 0.416,29.408 0.416,25.28 C0.416,21.12 3.552,18.176 7.616,18.176 Z M7.616,29.6 C10.08,29.6 11.616,27.904 11.616,25.312 C11.616,22.24 9.6,20.992 7.616,20.992 C5.632,20.992 3.616,22.24 3.616,25.312 C3.616,27.904 5.152,29.6 7.616,29.6 Z M21.416,30.432 L21.416,39.328 L18.28,39.328 L18.28,18.528 L21.416,18.528 L21.416,20 C22.568,18.624 24.072,18.176 25.416,18.176 C28.968,18.176 31.976,20.896 31.976,25.184 C31.976,29.728 28.648,32.416 25.448,32.416 C24.712,32.416 22.824,32.16 21.416,30.432 Z M25.032,20.992 C23.048,20.992 21.224,22.4 21.224,25.344 C21.224,28.16 23.048,29.6 25.032,29.6 C27.304,29.6 28.776,27.648 28.776,25.312 C28.776,22.912 27.304,20.992 25.032,20.992 Z M35.44,18.528 L38.576,18.528 L38.576,26.24 C38.576,27.04 38.608,27.968 39.152,28.672 C39.568,29.216 40.304,29.6 41.2,29.6 C42.096,29.6 42.832,29.216 43.248,28.672 C43.792,27.968 43.824,27.04 43.824,26.24 L43.824,18.528 L46.96,18.528 L46.96,26.336 C46.96,28.064 46.768,29.504 45.52,30.752 C44.304,31.968 42.64,32.416 41.136,32.416 C39.76,32.416 38.096,32 36.88,30.752 C35.632,29.504 35.44,28.064 35.44,26.336 L35.44,18.528 Z M59.352,20.544 L57.016,22.08 C56.696,21.568 56.088,20.928 55.096,20.928 C54.648,20.928 54.328,21.088 54.136,21.28 C53.976,21.44 53.848,21.696 53.848,21.984 C53.848,22.336 54.008,22.56 54.296,22.752 C54.488,22.88 54.68,22.944 55.352,23.296 L56.952,24.096 C57.656,24.448 58.328,24.8 58.84,25.344 C59.576,26.08 59.832,26.912 59.832,27.84 C59.832,29.056 59.384,30.112 58.648,30.912 C57.592,32.064 56.28,32.416 54.872,32.416 C54.008,32.416 52.92,32.288 51.96,31.552 C51.192,30.976 50.552,30.048 50.232,29.088 L52.792,27.872 C52.952,28.32 53.24,28.896 53.528,29.152 C53.72,29.344 54.168,29.664 54.904,29.664 C55.384,29.664 55.896,29.504 56.184,29.216 C56.44,28.96 56.632,28.544 56.632,28.16 C56.632,27.776 56.504,27.456 56.216,27.136 C55.832,26.752 55.384,26.528 54.872,26.304 L53.72,25.76 C53.112,25.472 52.376,25.12 51.864,24.608 C51.16,23.936 50.904,23.2 50.904,22.336 C50.904,21.248 51.32,20.192 52.024,19.456 C52.632,18.816 53.656,18.176 55.32,18.176 C56.28,18.176 57.048,18.368 57.816,18.88 C58.264,19.168 58.872,19.68 59.352,20.544 Z"/>
    <g fill="#4869E8" transform="translate(63)">
      <path d="M17.3220071,7.04372345 C17.3225442,4.05806012 15.756297,1.45021242 13.4170628,0 C14.1695085,1.25214028 14.6115511,2.71788778 14.6115511,4.29204008 C14.6115511,8.85083367 10.9699527,12.5470902 6.47803485,12.5470902 C4.92662317,12.5470902 3.48416139,12.0978677 2.25,11.3341283 C3.67923743,13.7085411 6.24852178,15.2982285 9.18902792,15.2987735 C13.6804087,15.2987735 17.3220071,11.602517 17.3220071,7.04372345 Z" transform="matrix(1 0 0 -1 0 15.299)"/>
      <path d="M8.53947361,12.3509934 C8.53977741,10.6921586 7.65374296,9.24323816 6.33042553,8.4375 C6.75608814,9.13318926 7.00615401,9.9475587 7.00615401,10.8221579 C7.00615401,13.355024 4.94608215,15.4086645 2.40498001,15.4086645 C1.52733806,15.4086645 0.711329646,15.1590764 0.0131578947,14.7347427 C0.821685214,16.0539667 2.27514323,16.9371971 3.93860341,16.9375 C6.47940174,16.9375 8.53947361,14.8838595 8.53947361,12.3509934 Z" opacity=".7" transform="matrix(1 0 0 -1 0 25.375)"/>
    </g>
  </g>
</svg>
