<svg xmlns="http://www.w3.org/2000/svg" width="82" height="35" viewBox="0 0 82 35">
  <g fill="none" fill-rule="evenodd">
    <path fill="#72EAA5" d="M81.3220071,7.04372345 C81.3225442,4.05806012 79.756297,1.45021242 77.4170628,0 C78.1695085,1.25214028 78.6115511,2.71788778 78.6115511,4.29204008 C78.6115511,8.85083367 74.9699527,12.5470902 70.4780349,12.5470902 C68.9266232,12.5470902 67.4841614,12.0978677 66.25,11.3341283 C67.6792374,13.7085411 70.2485218,15.2982285 73.1890279,15.2987735 C77.6804087,15.2987735 81.3220071,11.602517 81.3220071,7.04372345 Z" transform="matrix(1 0 0 -1 0 15.299)"/>
    <path fill="#72EAA5" d="M72.5394736,12.3509934 C72.5397774,10.6921586 71.653743,9.24323816 70.3304255,8.4375 C70.7560881,9.13318926 71.006154,9.9475587 71.006154,10.8221579 C71.006154,13.355024 68.9460821,15.4086645 66.40498,15.4086645 C65.5273381,15.4086645 64.7113296,15.1590764 64.0131579,14.7347427 C64.8216852,16.0539667 66.2751432,16.9371971 67.9386034,16.9375 C70.4794017,16.9375 72.5394736,14.8838595 72.5394736,12.3509934 Z" opacity=".396" transform="matrix(1 0 0 -1 0 25.375)"/>
    <path fill="#FFF" d="M0.847999976,22.224 C0.847999976,21.0853276 1.02066492,20.0726711 1.36599998,19.186 C1.71133504,18.2993289 2.17333042,17.5480031 2.75199998,16.932 C3.33066954,16.3159969 3.9979962,15.8493349 4.75399998,15.532 C5.51000376,15.2146651 6.30799578,15.056 7.14799998,15.056 C7.98800418,15.056 8.7859962,15.2146651 9.54199998,15.532 C10.2980038,15.8493349 10.9653304,16.3159969 11.544,16.932 C12.1226695,17.5480031 12.5846649,18.2993289 12.93,19.186 C13.275335,20.0726711 13.448,21.0853276 13.448,22.224 C13.448,23.3440056 13.275335,24.3473289 12.93,25.234 C12.5846649,26.1206711 12.1226695,26.8673303 11.544,27.474 C10.9653304,28.0806697 10.2980038,28.5426651 9.54199998,28.86 C8.7859962,29.1773349 7.98800418,29.336 7.14799998,29.336 C6.30799578,29.336 5.51000376,29.1773349 4.75399998,28.86 C3.9979962,28.5426651 3.33066954,28.0806697 2.75199998,27.474 C2.17333042,26.8673303 1.71133504,26.1206711 1.36599998,25.234 C1.02066492,24.3473289 0.847999976,23.3440056 0.847999976,22.224 Z M3.22799998,22.224 C3.22799998,23.0080039 3.32133238,23.7173302 3.50799998,24.352 C3.69466758,24.9866698 3.96066492,25.5326644 4.30599998,25.99 C4.65133504,26.4473356 5.06666422,26.8019987 5.55199998,27.054 C6.03733574,27.3060013 6.56933042,27.432 7.14799998,27.432 C7.72666954,27.432 8.25866422,27.3060013 8.74399998,27.054 C9.22933574,26.8019987 9.64466492,26.4473356 9.98999998,25.99 C10.335335,25.5326644 10.6013324,24.9866698 10.788,24.352 C10.9746676,23.7173302 11.068,23.0080039 11.068,22.224 C11.068,21.4399961 10.9746676,20.7260032 10.788,20.082 C10.6013324,19.4379968 10.335335,18.882669 9.98999998,18.416 C9.64466492,17.949331 9.22933574,17.5900013 8.74399998,17.338 C8.25866422,17.0859987 7.72666954,16.96 7.14799998,16.96 C6.56933042,16.96 6.03733574,17.0859987 5.55199998,17.338 C5.06666422,17.5900013 4.65133504,17.949331 4.30599998,18.416 C3.96066492,18.882669 3.69466758,19.4379968 3.50799998,20.082 C3.32133238,20.7260032 3.22799998,21.4399961 3.22799998,22.224 Z M20.128,30.148 L20.128,34.74 L17.832,34.74 L17.832,15.392 L19.736,15.392 L19.932,16.96 L20.016,16.96 C20.6320031,16.4373307 21.308663,15.9893352 22.046,15.616 C22.783337,15.2426648 23.5533293,15.056 24.356,15.056 C25.2333377,15.056 26.0079966,15.2193317 26.68,15.546 C27.3520033,15.8726683 27.9119977,16.3393303 28.36,16.946 C28.8080022,17.5526697 29.1486655,18.2806624 29.382,19.13 C29.6153345,19.9793376 29.732,20.9359947 29.732,22 C29.732,23.1573391 29.5733349,24.1886621 29.256,25.094 C28.9386651,25.9993379 28.509336,26.7693302 27.968,27.404 C27.4266639,28.0386698 26.8013369,28.5193317 26.092,28.846 C25.3826631,29.1726683 24.6360039,29.336 23.852,29.336 C23.2173301,29.336 22.5873364,29.1960014 21.962,28.916 C21.3366635,28.6359986 20.7066698,28.2533358 20.072,27.768 L20.128,30.148 Z M20.128,25.976 C20.7440031,26.4986693 21.3413304,26.8673323 21.92,27.082 C22.4986695,27.2966677 23.0119977,27.404 23.46,27.404 C24.0200028,27.404 24.5379976,27.2780013 25.014,27.026 C25.4900024,26.7739987 25.9006649,26.4193356 26.246,25.962 C26.591335,25.5046644 26.861999,24.9400034 27.058,24.268 C27.254001,23.5959966 27.352,22.8400042 27.352,22 C27.352,21.2533296 27.2866673,20.5720031 27.156,19.956 C27.0253327,19.3399969 26.8153348,18.8126689 26.526,18.374 C26.2366652,17.9353311 25.8633356,17.5946679 25.406,17.352 C24.9486644,17.1093321 24.4026698,16.988 23.768,16.988 C23.1893304,16.988 22.6060029,17.1466651 22.018,17.464 C21.429997,17.7813349 20.8000033,18.2386637 20.128,18.836 L20.128,25.976 Z M33.976,15.392 L36.3,15.392 L36.3,23.708 C36.3,24.9960064 36.5006647,25.9246638 36.902,26.494 C37.3033353,27.0633362 37.9519955,27.348 38.848,27.348 C39.5573369,27.348 40.182664,27.1660018 40.724,26.802 C41.265336,26.4379982 41.8626634,25.8546707 42.516,25.052 L42.516,15.392 L44.812,15.392 L44.812,29 L42.908,29 L42.712,26.872 L42.628,26.872 C41.9933302,27.6186704 41.3260035,28.2159978 40.626,28.664 C39.9259965,29.1120022 39.1000048,29.336 38.148,29.336 C36.6919927,29.336 35.63267,28.8880045 34.97,27.992 C34.30733,27.0959955 33.976,25.7706754 33.976,24.016 L33.976,15.392 Z M49.84,25.92 C50.4373363,26.4053358 51.0486636,26.7973318 51.674,27.096 C52.2993365,27.3946682 53.0226626,27.544 53.844,27.544 C54.7400045,27.544 55.4119978,27.3386687 55.86,26.928 C56.3080023,26.5173313 56.532,26.0133363 56.532,25.416 C56.532,25.0613316 56.4386676,24.7533346 56.252,24.492 C56.0653324,24.2306654 55.8273348,24.002001 55.538,23.806 C55.2486652,23.609999 54.9173352,23.4373341 54.544,23.288 L53.424,22.84 C52.9386643,22.6719992 52.4533358,22.4806677 51.968,22.266 C51.4826643,22.0513323 51.0486686,21.7900015 50.666,21.482 C50.2833314,21.1739985 49.9706679,20.8146687 49.728,20.404 C49.4853321,19.9933313 49.364,19.4986696 49.364,18.92 C49.364,18.378664 49.4713323,17.8700024 49.686,17.394 C49.9006678,16.9179976 50.2086647,16.5073351 50.61,16.162 C51.0113354,15.8166649 51.5013305,15.546001 52.08,15.35 C52.6586696,15.153999 53.3119964,15.056 54.04,15.056 C54.898671,15.056 55.6873298,15.2053318 56.406,15.504 C57.1246703,15.8026682 57.7453307,16.1666645 58.268,16.596 L57.176,18.052 C56.709331,17.6973316 56.2240025,17.4080011 55.72,17.184 C55.2159975,16.9599989 54.6653363,16.848 54.068,16.848 C53.2093291,16.848 52.5793354,17.043998 52.178,17.436 C51.7766647,17.828002 51.576,18.2853307 51.576,18.808 C51.576,19.1253349 51.6599992,19.4006655 51.828,19.634 C51.9960009,19.8673345 52.2199986,20.0726658 52.5,20.25 C52.7800014,20.4273342 53.1019982,20.5859993 53.466,20.726 C53.8300018,20.8660007 54.2079981,21.0106659 54.6,21.16 C55.0853358,21.3466676 55.5753309,21.5426656 56.07,21.748 C56.5646692,21.9533344 57.0079981,22.2099985 57.4,22.518 C57.792002,22.8260015 58.1139988,23.2039978 58.366,23.652 C58.6180013,24.1000022 58.744,24.6413302 58.744,25.276 C58.744,25.8360028 58.6366678,26.3586642 58.422,26.844 C58.2073323,27.3293358 57.8900021,27.7586648 57.47,28.132 C57.0499979,28.5053352 56.5273365,28.7993323 55.902,29.014 C55.2766636,29.2286677 54.5626707,29.336 53.76,29.336 C52.7893285,29.336 51.8653377,29.1586684 50.988,28.804 C50.1106623,28.4493316 49.3453366,28.001336 48.692,27.46 L49.84,25.92 Z"/>
  </g>
</svg>
