<svg xmlns="http://www.w3.org/2000/svg" width="111" height="25" viewBox="0 0 111 25">
  <g fill="none" fill-rule="evenodd">
    <path fill="#FFF" d="M0.044,9.188 L3.52,9.188 L6.006,14.446 L8.492,9.188 L11.968,9.188 L6.996,19 L5.016,19 L0.044,9.188 Z M24.288,14.094 C24.288,15.348 23.804,16.756 22.814,17.746 C21.934,18.626 20.438,19.33 18.524,19.33 C16.61,19.33 15.114,18.626 14.234,17.746 C13.244,16.756 12.76,15.348 12.76,14.094 C12.76,12.84 13.244,11.432 14.234,10.442 C15.114,9.562 16.61,8.858 18.524,8.858 C20.438,8.858 21.934,9.562 22.814,10.442 C23.804,11.432 24.288,12.84 24.288,14.094 Z M18.524,11.542 C17.798,11.542 17.204,11.784 16.742,12.246 C16.28,12.708 16.016,13.302 16.016,14.094 C16.016,14.996 16.368,15.568 16.742,15.942 C17.138,16.338 17.71,16.646 18.546,16.646 C19.25,16.646 19.844,16.404 20.306,15.942 C20.768,15.48 21.032,14.886 21.032,14.094 C21.032,13.302 20.768,12.708 20.306,12.246 C19.844,11.784 19.25,11.542 18.524,11.542 Z M33.726,10.332 L33.726,9.188 L36.894,9.188 L36.894,18.406 C36.894,19.792 36.828,21.354 35.684,22.586 C34.474,23.884 32.626,24.038 31.548,24.038 C30.25,24.038 28.688,23.84 27.456,22.784 C26.84,22.256 26.202,21.42 25.982,20.188 L29.436,20.188 C29.568,20.694 29.876,20.98 30.14,21.156 C30.514,21.398 31.042,21.486 31.504,21.486 C32.406,21.486 32.868,21.156 33.088,20.958 C33.704,20.364 33.726,19.33 33.726,18.912 L33.726,17.79 C33.352,18.406 32.604,19.264 30.8,19.264 C29.282,19.264 28.116,18.78 27.214,17.878 C26.422,17.064 25.784,15.876 25.784,14.182 C25.784,12.51 26.4,11.124 27.236,10.266 C27.83,9.65 28.974,8.858 30.8,8.858 C32.582,8.858 33.374,9.804 33.726,10.332 Z M31.526,11.608 C30.822,11.608 30.184,11.872 29.788,12.246 C29.304,12.708 29.04,13.478 29.04,14.072 C29.04,14.71 29.282,15.37 29.722,15.832 C30.162,16.294 30.756,16.536 31.504,16.536 C32.34,16.536 32.89,16.206 33.22,15.898 C33.704,15.436 33.99,14.754 33.99,14.028 C33.99,13.258 33.66,12.62 33.242,12.224 C32.78,11.806 32.098,11.608 31.526,11.608 Z M39.358,9.188 L42.526,9.188 L42.526,14.6 C42.526,15.04 42.57,15.722 43.076,16.184 C43.296,16.382 43.692,16.646 44.396,16.646 C44.99,16.646 45.452,16.448 45.738,16.184 C46.2,15.744 46.266,15.084 46.266,14.6 L46.266,9.188 L49.434,9.188 L49.434,14.908 C49.434,16.03 49.324,17.086 48.334,18.054 C47.212,19.154 45.562,19.33 44.396,19.33 C43.186,19.33 41.558,19.154 40.436,18.054 C39.534,17.174 39.358,16.184 39.358,15.106 L39.358,9.188 Z M52.118,9.188 L55.286,9.188 L55.286,19 L52.118,19 L52.118,9.188 Z M51.854,5.008 C51.854,3.974 52.668,3.16 53.702,3.16 C54.736,3.16 55.55,3.974 55.55,5.008 C55.55,6.042 54.736,6.856 53.702,6.856 C52.668,6.856 51.854,6.042 51.854,5.008 Z M65.23,9.694 L63.976,11.696 C63.492,11.41 62.854,11.146 62.238,11.146 C61.908,11.146 61.534,11.234 61.336,11.432 C61.226,11.542 61.138,11.718 61.138,11.872 C61.138,12.092 61.292,12.224 61.446,12.312 C61.666,12.444 61.996,12.51 62.392,12.642 L63.228,12.906 C63.778,13.082 64.35,13.302 64.856,13.764 C65.428,14.292 65.626,14.886 65.626,15.634 C65.626,16.932 65.054,17.768 64.614,18.208 C63.646,19.176 62.458,19.33 61.424,19.33 C60.104,19.33 58.674,19.044 57.398,17.922 L58.74,15.788 C59.048,16.052 59.488,16.36 59.818,16.514 C60.258,16.734 60.72,16.822 61.138,16.822 C61.336,16.822 61.842,16.822 62.128,16.602 C62.326,16.448 62.458,16.206 62.458,15.964 C62.458,15.788 62.392,15.568 62.106,15.392 C61.886,15.26 61.6,15.172 61.138,15.04 L60.346,14.798 C59.774,14.622 59.18,14.314 58.762,13.896 C58.3,13.412 58.058,12.862 58.058,12.114 C58.058,11.168 58.432,10.376 59.004,9.848 C59.884,9.034 61.072,8.858 61.974,8.858 C63.426,8.858 64.438,9.232 65.23,9.694 Z M67.606,19 L67.606,2.962 L70.774,2.962 L70.774,10.354 C71.17,9.87 71.588,9.54 71.962,9.342 C72.622,8.99 73.172,8.924 73.876,8.924 C74.646,8.924 75.79,9.034 76.648,9.914 C77.55,10.816 77.616,12.026 77.616,12.774 L77.616,19 L74.448,19 L74.448,13.962 C74.448,13.28 74.426,12.488 73.92,12.004 C73.634,11.718 73.15,11.564 72.688,11.564 C72.006,11.564 71.61,11.872 71.434,12.048 C70.796,12.664 70.774,13.61 70.774,14.094 L70.774,19 L67.606,19 Z"/>
    <path fill="#FFDDD5" d="M107.083705,11.5479911 C107.140997,10.5822124 107.005954,9.65532438 106.678571,8.76729911 C106.351189,7.87927383 105.888768,7.10584407 105.291295,6.44698661 C104.693821,5.78812915 103.969498,5.2520482 103.118304,4.83872768 C102.267109,4.42540716 101.362728,4.19010445 100.405134,4.1328125 C99.4557244,4.07552055 98.5329286,4.20647162 97.6367188,4.52566964 C96.7405089,4.84486767 95.9548025,5.29705809 95.2795759,5.88225446 C94.6043493,6.46745084 94.0518995,7.18358951 93.6222098,8.03069196 C93.1925202,8.87779441 92.949033,9.78012914 92.8917411,10.7377232 C92.8344491,11.7035019 92.9694924,12.6303899 93.296875,13.5184152 C93.6242576,14.4064405 94.0866786,15.1798702 94.6841518,15.8387277 C95.281625,16.4975851 96.0079942,17.0336661 96.8632812,17.4469866 C97.7185683,17.8603071 98.6249952,18.0956098 99.5825893,18.1529018 C100.851197,18.2265629 102.050218,17.9851218 103.179688,17.4285714 C104.309157,16.872021 105.225815,16.0719918 105.929688,15.0284598 C106.63356,13.9849278 107.018229,12.8247832 107.083705,11.5479911 Z M111,0.142857143 L106.715402,4.41517857 C107.69755,5.37277265 108.436195,6.48585675 108.931362,7.75446429 C109.426528,9.02307182 109.633185,10.3366748 109.551339,11.6953125 C109.461309,13.1930878 109.043903,14.5803508 108.299107,15.8571429 C107.554312,17.133935 106.568086,18.1794974 105.340402,18.9938616 C104.112717,19.8082258 102.7541,20.3177073 101.264509,20.5223214 L89,22.1428571 L93.2600446,17.8828125 C92.2778969,16.933403 91.539251,15.822365 91.0440848,14.5496652 C90.5489187,13.2769654 90.3422615,11.9613163 90.4241071,10.6026786 C90.5141374,9.09671866 90.9315439,7.70536353 91.6763393,6.42857143 C92.4211347,5.15177933 93.409406,4.10621687 94.641183,3.29185268 C95.87296,2.47748849 97.2336235,1.96800698 98.7232143,1.76339286 C100.090037,1.58333243 102.136147,1.31324585 104.861607,0.953125 C107.587067,0.593004152 109.633178,0.322917567 111,0.142857143 Z"/>
  </g>
</svg>
