<svg height="30" viewBox="0 0 162 30" width="162" xmlns="http://www.w3.org/2000/svg"><rect fill="#ff7a4b" height="30" rx="3" width="30"/><path d="m15 5 3.3 5.971 6.7 1.287-4.666 4.977.846 6.765-6.18-2.9-6.18 2.9.847-6.766-4.667-4.976 6.7-1.286z" fill="#fff"/><rect fill="#ff7a4b" height="30" rx="3" width="30" x="33"/><path d="m48 5 3.3 5.971 6.7 1.287-4.666 4.977.846 6.765-6.18-2.9-6.18 2.9.847-6.766-4.667-4.976 6.7-1.286z" fill="#fff"/><rect fill="#ff7a4b" height="30" rx="3" width="30" x="66"/><path d="m81 5 3.3 5.971 6.7 1.287-4.666 4.977.846 6.765-6.18-2.9-6.18 2.9.847-6.766-4.667-4.976 6.7-1.286z" fill="#fff"/><rect fill="#ff7a4b" height="30" rx="3" width="30" x="99"/><path d="m114 5 3.3 5.971 6.7 1.286-4.666 4.977.846 6.766-6.18-2.9-6.18 2.9.847-6.766-4.667-4.976 6.7-1.286z" fill="#fff"/><rect fill="#ff7a4b" height="30" rx="3" width="30" x="132"/><path d="m147 5 3.3 5.971 6.7 1.286-4.666 4.977.846 6.766-6.18-2.9-6.18 2.9.847-6.766-4.667-4.976 6.7-1.286z" fill="#fff"/></svg>