<?xml version="1.0" encoding="utf-8" ?>
<svg xmlns="http://www.w3.org/2000/svg" xmlns:xlink="http://www.w3.org/1999/xlink" width="55" height="11" viewBox="0 0 55 11">
  <defs>
    <path id="img-a" d="M251,106.98 L251,105 C253.585,105.165 254.795,105.935 258.7,109.73 C261.725,112.645 263.21,113.58 264.75,113.58 C266.29,113.58 267.72,112.645 270.745,109.73 C274.595,106.045 276.245,105 278.5,105 C280.81,105 282.405,105.99 286.255,109.73 C289.225,112.645 290.71,113.58 292.25,113.58 C293.79,113.58 295.22,112.645 298.245,109.73 C302.15,105.99 303.47,105.165 306,105 L306,106.98 C304.24,107.09 303.03,107.86 299.95,110.83 C296.265,114.46 294.45,115.56 292.25,115.56 C289.995,115.56 288.4,114.57 284.55,110.885 C281.525,107.915 280.095,106.98 278.5,106.98 C276.905,106.98 275.42,107.915 272.45,110.885 C268.71,114.46 266.95,115.56 264.75,115.56 C262.495,115.56 260.9,114.57 256.995,110.83 C253.915,107.805 252.76,107.09 251,106.98 Z"/>
  </defs>
  <g fill="none" transform="translate(-251 -105)">
    <use fill="#FFF" xlink:href="#img-a"/>
    <use fill="#BB9857" xlink:href="#img-a"/>
  </g>
</svg>
